<svg width="13" height="10" viewBox="0 0 13 10" fill="none" xmlns="http://www.w3.org/2000/svg">
<path d="M12.0781 1.59375H0.921875C0.470312 1.59375 0.125 1.24844 0.125 0.796875C0.125 0.345312 0.470312 0 0.921875 0H12.0781C12.5297 0 12.875 0.345312 12.875 0.796875C12.875 1.24844 12.5297 1.59375 12.0781 1.59375Z" fill="white"/>
<path d="M12.0781 5.3125H0.921875C0.470312 5.3125 0.125 4.96719 0.125 4.51562C0.125 4.06406 0.470312 3.71875 0.921875 3.71875H12.0781C12.5297 3.71875 12.875 4.06406 12.875 4.51562C12.875 4.96719 12.5297 5.3125 12.0781 5.3125Z" fill="white"/>
<path d="M12.0781 9.03125H0.921875C0.470312 9.03125 0.125 8.68594 0.125 8.23438C0.125 7.78281 0.470312 7.4375 0.921875 7.4375H12.0781C12.5297 7.4375 12.875 7.78281 12.875 8.23438C12.875 8.68594 12.5297 9.03125 12.0781 9.03125Z" fill="white"/>
</svg>
