<svg width="24" height="24" viewBox="0 0 24 24" fill="none" xmlns="http://www.w3.org/2000/svg">
<path d="M2.61445 23.5513C2.01635 24.1495 1.04665 24.1495 0.448574 23.5513C-0.149525 22.9534 -0.149525 21.9836 0.448574 21.3856L9.83418 12L0.448574 2.61445C-0.149525 2.01635 -0.149525 1.04665 0.448574 0.448574C1.04665 -0.149525 2.01635 -0.149525 2.61445 0.448574L12 9.83418L21.3856 0.448574C21.9836 -0.149525 22.9534 -0.149525 23.5513 0.448574C24.1495 1.04665 24.1495 2.01635 23.5513 2.61445L14.1658 12L23.5513 21.3856C24.1495 21.9836 24.1495 22.9534 23.5513 23.5513C22.9534 24.1495 21.9836 24.1495 21.3856 23.5513L12 14.1658L2.61445 23.5513Z" fill="#292828"/>
</svg>
