<svg width="24" height="24" viewBox="0 0 24 24" fill="none" xmlns="http://www.w3.org/2000/svg">
<path d="M12.1659 12C10.4931 12 9.06104 11.4125 7.8698 10.2375C6.67856 9.0625 6.08293 7.65 6.08293 6C6.08293 4.35 6.67856 2.9375 7.8698 1.7625C9.06104 0.5875 10.4931 0 12.1659 0C13.8387 0 15.2707 0.5875 16.4619 1.7625C17.6532 2.9375 18.2488 4.35 18.2488 6C18.2488 7.65 17.6532 9.0625 16.4619 10.2375C15.2707 11.4125 13.8387 12 12.1659 12ZM3.04147 24C0.665823 24 -5.28017e-05 22.8001 3.14031e-09 21.9C4.81169e-05 21.0799 3.14031e-09 19.8 3.14031e-09 19.8C3.14031e-09 18.95 0.221774 18.1688 0.665321 17.4563C1.10887 16.7438 1.69815 16.2 2.43317 15.825C4.0046 15.05 5.60137 14.4688 7.22348 14.0813C8.8456 13.6938 10.4931 13.5 12.1659 13.5C13.8387 13.5 15.4861 13.6938 17.1083 14.0813C18.7304 14.4688 20.3271 15.05 21.8986 15.825C22.6336 16.2 23.2229 16.7438 23.6664 17.4563C24.11 18.1688 23.9832 20.625 23.9832 21.9C23.9832 21.9 23.9832 24 20.9418 24C17.9003 24 5.41711 24 3.04147 24ZM3.04147 21C3.38996 21.5 21.2903 21.5 21.2903 21C21.2903 20.5 21.2903 19.8 21.2903 19.8C21.2903 19.525 21.2206 19.275 21.0812 19.05C20.9418 18.825 20.758 18.65 20.5299 18.525C19.1612 17.85 17.7799 17.3438 16.3859 17.0063C14.9919 16.6688 13.5852 16.5 12.1659 16.5C10.7465 16.5 9.33984 16.6688 7.94583 17.0063C6.55183 17.3438 5.17049 17.85 3.80183 18.525C3.57372 18.65 3.38997 18.825 3.25057 19.05C3.11117 19.275 3.04147 19.5 2.92649 19.8C2.92649 19.8 2.69297 20.5 3.04147 21ZM12.1659 9C13.0023 9 13.7183 8.70625 14.3139 8.11875C14.9095 7.53125 15.2073 6.825 15.2073 6C15.2073 5.175 14.9095 4.46875 14.3139 3.88125C13.7183 3.29375 13.0023 3 12.1659 3C11.3295 3 10.6135 3.29375 10.0178 3.88125C9.42221 4.46875 9.1244 5.175 9.1244 6C9.1244 6.825 9.42221 7.53125 10.0178 8.11875C10.6135 8.70625 11.3295 9 12.1659 9Z" fill="#292828"/>
</svg>
