<svg xmlns="http://www.w3.org/2000/svg" width="302" height="727" viewBox="0 0 302 727" fill="none">
    <path d="M49.5117 12.035C78.5755 4.81465 109.623 0.933727 139.282 8.06379C161.502 13.3888 182.729 24.6705 195.624 42.3603C206.536 57.2522 211.098 75.5738 208.123 93.2636C204.75 113.841 191.954 130.809 176.281 145.43C142.754 176.658 98.9102 196.334 63.498 225.576C26.0027 256.533 -4.05301 304.999 12.8099 352.112C27.8874 394.261 75.5996 418.178 115.575 438.214C149.102 454.911 183.523 470.616 215.364 490.02C245.023 508.161 276.963 531.898 286.387 564.841C297.992 605.816 266.945 644.535 231.433 666.557C186.399 694.445 130.454 707.713 76.79 711.955C49.1149 714.121 21.1422 714.301 -6.53287 712.767C-34.4063 711.233 -62.0814 709.247 -89.6573 704.734C-102.552 702.568 -115.349 700.041 -128.145 697.334C-134.989 695.889 -137.866 705.637 -131.021 706.901C-103.247 711.864 -75.175 716.287 -47.2023 720.168C-19.0313 724.049 9.13977 726.215 37.7076 726.305C94.5457 726.486 152.177 717.099 203.956 695.168C249.982 675.673 294.421 642.279 301.266 593.632C306.424 557.53 283.708 526.393 255.14 503.468C225.184 479.28 189.474 461.951 154.459 444.713C135.711 435.507 116.765 426.301 98.4142 416.463C77.4843 405.272 56.852 392.636 41.1794 375.578C24.0189 356.896 17.3729 333.249 21.9358 309.332C26.5979 284.963 40.485 263.302 58.8359 245.342C92.3634 212.489 137.695 192.543 174 162.669C191.557 148.228 207.527 130.99 215.265 110.322C221.911 92.4513 221.811 72.7759 213.975 55.2666C205.94 37.3061 190.962 22.6849 172.413 13.3888C147.813 1.20449 118.451 -1.23237 91.0739 1.83627C76.79 3.46084 62.8036 6.61973 49.2141 10.9519C48.3213 11.1324 48.7181 12.3057 49.5117 12.035Z" fill="#F96C65"/>
</svg>