<svg width="256" height="474" viewBox="0 0 256 474" fill="none" xmlns="http://www.w3.org/2000/svg">
<path d="M38.426 346.545C26.2556 357.083 16.7442 369.207 9.89199 383.195C3.03974 397.091 -1.86934 411.36 0.68747 426.654C5.80109 457.43 38.7329 476.455 71.6646 473.75C105.926 470.859 134.664 449.783 154.505 425.349C173.119 402.407 184.062 374.243 184.88 345.705C185.903 313.997 173.221 285.46 153.687 259.72C143.255 245.918 131.392 232.862 122.085 218.406C113.903 205.723 108.074 191.828 104.903 177.279C98.8691 148.928 104.392 118.992 119.426 93.719C134.358 68.6323 157.983 48.6748 185.085 34.6859C236.426 8.10703 303.823 1.85866 355.778 30.4892C362.425 34.1263 368.664 38.1365 374.596 42.7062C380.323 47.1826 388.812 39.6286 382.982 35.0589C337.266 -1.49866 272.016 -7.00096 215.767 10.252C157.778 28.0645 106.539 69.8446 93.7554 126.08C87.4145 154.058 90.9942 183.061 103.574 209.174C117.994 239.11 145.301 262.052 160.846 291.522C188.562 344.027 168.108 407.816 120.142 444.28C94.3691 463.865 53.8692 473.843 25.642 452.394C11.9375 442.042 6.61932 426.748 6.61932 410.8C6.7216 394.76 14.0852 379.838 22.8807 366.222C27.3807 359.321 32.9034 352.979 38.8352 347.011C39.142 346.638 38.7329 346.265 38.426 346.545Z" fill="#E178C5"/>
</svg>
