<svg xmlns="http://www.w3.org/2000/svg" width="481" height="86" viewBox="0 0 481 86" fill="none">
    <path d="M373.99 72.5338C337.721 69.8755 301.066 72.0686 264.797 73.6636C228.913 75.2585 193.107 77.9168 157.224 79.1131C122.807 80.2428 87.7719 80.2428 54.2036 73.1319C40.9306 70.3407 -8.30304 59.5081 11.9151 40.1026C18.243 34.0549 27.8119 30.6656 36.5319 28.0737C45.252 25.4819 54.2036 23.6876 63.1551 21.8932C77.6628 18.9691 92.0934 15.9785 106.755 13.9183C124.273 11.4594 141.944 9.66504 159.693 8.4688C229.608 3.68387 300.68 5.67759 370.209 13.4531C384.331 15.0481 398.53 16.5766 412.575 18.7697C425.771 20.8299 439.198 23.4882 451.236 28.8048C456.87 31.2637 462.194 34.3208 466.747 38.1088C471.454 42.0298 476.007 49.2072 468.831 53.1947C462.117 56.9163 453.243 58.1125 445.526 59.1758C437.114 60.2391 428.703 60.9702 420.292 61.9006C411.572 62.831 402.852 63.7614 394.131 64.4924C388.267 65.0241 388.035 72.9325 394.131 72.5338C412.575 71.3375 430.941 68.5463 449.153 65.9545C462.657 64.0272 484.65 59.5746 480.483 43.7577C477.396 32.0612 461.654 24.6844 449.924 20.3647C436.729 15.5797 422.684 13.1208 408.562 11.26C336.795 1.88951 264.565 -1.96502 192.027 0.959109C155.68 2.42117 119.411 5.81051 83.7592 12.124C72.1839 14.1841 60.5314 16.5101 49.0333 18.9691C38.6155 21.2286 28.1206 23.8869 18.6288 28.2067C10.6033 31.8618 2.26907 37.4442 0.417021 45.5521C-2.05238 56.2517 6.82202 64.1601 17.0855 68.8122C30.8986 75.0592 46.8725 78.515 62.0748 81.0403C79.6692 83.9645 97.5724 85.4265 115.553 85.8253C153.751 86.7557 191.872 83.7651 229.917 81.7049C268.192 79.5783 306.545 78.4485 344.898 76.7206C354.698 76.2554 364.422 75.7237 374.145 74.9927C375.842 74.8598 375.842 72.6667 373.99 72.5338Z" fill="#E178C5"/>
</svg>