<svg width="33" height="33" viewBox="0 0 33 33" fill="none" xmlns="http://www.w3.org/2000/svg">
<rect x="0.536896" y="0.124512" width="32" height="32" rx="10" fill="#635C5C"/>
<path d="M22.081 3.1068C22.1272 3.16782 22.212 3.4043 22.2583 3.64077C22.4587 4.57904 22.0039 6.06654 21.2562 6.89801L20.9402 7.24891L21.0713 7.58455C21.1483 7.79814 21.2023 8.20243 21.21 8.69826L21.2254 9.47634L21.58 9.96454C22.5897 11.3681 23.0753 13.1455 22.9905 15.1136C22.9366 16.4409 22.767 17.1961 22.1889 18.6759C21.4104 20.6822 20.6088 21.7654 18.3812 23.8631C17.9804 24.2369 17.5102 24.7556 17.3406 25.0073C16.855 25.7244 16.8627 25.6863 17.2019 25.6252C18.3426 25.4116 19.8611 24.275 20.7167 22.9859C21.0096 22.5434 21.079 22.49 21.3256 22.4672C21.8575 22.4214 22.0656 23.0088 21.6956 23.5351C21.2871 24.1225 20.4623 25.0302 20.0769 25.3277C19.1828 26.0066 18.0574 26.5711 17.3483 26.6855C16.7702 26.7847 16.8088 26.7084 16.8319 27.6543C16.8396 28.1273 16.8242 28.8443 16.7933 29.241C16.7317 29.958 16.7317 29.9657 16.5159 29.9886C16.4002 30.0038 16.3 30.0038 16.2923 29.9886C16.2846 29.9733 16.2615 29.2486 16.2384 28.3714L16.1921 26.7771L15.5986 26.6398C14.5041 26.3804 13.5252 25.8464 12.6156 25.0073C12.0684 24.4963 11.2436 23.4588 11.1743 23.169C11.1049 22.902 11.2822 22.5358 11.498 22.4824C11.8525 22.3909 12.0298 22.5129 12.4152 23.0774C12.9162 23.8097 13.3864 24.3056 13.9722 24.7098C14.4887 25.0836 15.429 25.5337 15.8298 25.6023L16.0765 25.6557L15.9532 25.404C15.6757 24.8777 15.352 24.4963 14.1341 23.2834C12.5848 21.7349 11.9759 20.9568 11.3438 19.6676C10.0104 16.9749 9.68662 14.7093 10.2955 12.3445C10.4728 11.6656 11.1511 10.2468 11.5828 9.6823C11.8448 9.32378 11.8603 9.27038 11.8448 8.7898C11.8371 8.50756 11.8834 8.04987 11.9528 7.77525L12.0838 7.27179L11.6984 6.78359C11.1897 6.15045 11.0355 5.83006 10.8736 5.10538C10.7118 4.39596 10.7503 3.57974 10.9661 3.22885C11.0355 3.1068 11.1203 3 11.1511 3C11.2667 3 11.6676 3.2441 11.8063 3.38904C12.2534 3.88487 13.4327 4.5409 14.5426 4.90705C15.2055 5.12827 15.5292 5.17404 16.539 5.15878C17.6181 5.15115 18.5893 4.92994 19.6222 4.46462C19.7686 4.39596 19.9074 4.34256 19.9305 4.33494C20.023 4.32731 20.7552 3.86962 20.9248 3.71705C21.0327 3.61789 21.1483 3.56449 21.1946 3.58737C21.2408 3.61026 21.2562 3.61026 21.2254 3.57212C21.156 3.49584 21.7033 3.00763 21.8652 3C21.9345 3 22.0347 3.04577 22.081 3.1068ZM20.7938 4.93756C19.9228 5.47916 18.6895 5.99026 17.8185 6.17333C17.171 6.30301 15.9069 6.32589 15.3057 6.21147C14.5889 6.06654 13.6331 5.7309 12.7698 5.31897C12.3227 5.09776 11.9373 4.92993 11.9219 4.94519C11.9142 4.96045 11.9913 5.17404 12.0992 5.41051C12.5386 6.34878 13.0858 6.76833 14.5272 7.27179C15.6449 7.6532 16.0303 7.88205 16.3154 8.32448C16.4388 8.51519 16.539 8.63724 16.539 8.58384C16.539 8.42365 17.0246 7.9507 17.3791 7.76762C17.5718 7.67608 18.0574 7.47012 18.4583 7.31756C18.8591 7.165 19.3678 6.93615 19.5836 6.8141C20.2542 6.43269 20.894 5.65461 21.0944 4.96808C21.1637 4.70872 21.156 4.70872 20.7938 4.93756ZM18.8976 8.33974C18.6818 8.40839 18.3118 8.49993 18.096 8.53044C17.6181 8.59147 17.6181 8.5991 17.1248 9.71281C16.9244 10.1552 16.7008 10.5977 16.6161 10.7045L16.4696 10.8952L16.0457 9.99506C15.8067 9.50685 15.614 9.07205 15.614 9.04153C15.614 9.01102 15.5369 8.8966 15.4367 8.7898C15.3057 8.62961 15.1361 8.56096 14.6351 8.46942C14.2883 8.40839 13.7872 8.2482 13.5252 8.12615C13.2554 7.99647 13.0242 7.90493 13.0164 7.91256C13.001 7.92782 12.9548 8.12615 12.9085 8.36262C12.8083 8.91948 12.9162 9.51448 13.2169 10.1324C13.5175 10.735 13.8797 11.1469 14.5735 11.658C15.352 12.2377 16.0148 12.9624 16.2923 13.5422C16.5159 13.9999 16.5313 14.0151 16.6006 13.832C16.8165 13.3057 17.5025 12.5124 18.3966 11.7648C19.337 10.9791 19.6915 10.5595 19.9613 9.87301C20.1463 9.40006 20.2003 8.66775 20.0846 8.1948L19.9921 7.79814L19.6453 7.99647C19.4603 8.11089 19.1211 8.26346 18.8976 8.33974ZM20.154 11.6275C19.9844 11.8335 19.5142 12.2606 19.1057 12.581C18.2039 13.2981 17.7954 13.8092 17.1942 14.961C16.9398 15.4492 16.67 15.884 16.6006 15.9222C16.4234 16.029 16.3309 15.9069 15.7759 14.7856C15.2595 13.7405 14.9126 13.321 13.926 12.5505C13.2785 12.0394 12.8392 11.5817 12.4384 10.9867L12.2379 10.6892L12.0452 11.0249C11.4132 12.0776 11.128 13.2142 11.128 14.6025C11.1357 15.5865 11.2128 16.1358 11.5057 17.1427C11.8757 18.4395 12.3921 19.5532 13.1089 20.6211C13.4712 21.1551 14.0647 21.7654 13.9568 21.4984C13.7487 20.9491 13.1321 18.9582 13.0704 18.6378C13.0087 18.3174 13.0164 18.2106 13.1167 18.0581C13.186 17.9589 13.2939 17.875 13.3633 17.875C13.5868 17.875 14.111 18.1801 14.4887 18.531C14.6891 18.7217 14.8741 18.859 14.8972 18.8361C14.9666 18.7751 14.3808 17.7987 14.0879 17.4707C13.9337 17.3105 13.6254 17.0664 13.4018 16.9443C13.0242 16.7308 12.9933 16.7002 13.001 16.4409C13.0087 16.0213 13.1706 15.495 13.3094 15.4111C13.8027 15.1059 15.1515 16.6545 15.799 18.2869C16.0225 18.8285 16.4542 20.4381 16.4696 20.7737C16.4773 20.8957 16.5081 20.85 16.5544 20.6211C16.8627 19.2633 17.5179 17.7453 18.1654 16.9138C18.5122 16.4638 19.2676 15.7315 19.522 15.6018C19.6684 15.5179 19.7069 15.5331 19.784 15.6781C19.838 15.7772 19.8996 16.1358 19.9151 16.4714L19.9459 17.0969L19.522 17.4097C19.098 17.7148 18.782 18.0962 18.5045 18.6378L18.3658 18.8972L18.5508 18.7675C18.9516 18.4852 19.4834 18.2488 19.6222 18.2945C19.6992 18.3174 19.8071 18.4547 19.8534 18.5997C19.9536 18.9124 19.8842 19.2023 19.3601 20.6059C19.1751 21.0941 18.9978 21.567 18.967 21.6509C18.9053 21.8264 19.3524 21.3306 19.838 20.705C20.1848 20.255 20.8092 19.1108 21.0867 18.409C21.4412 17.5317 21.842 15.9984 21.896 15.3043C22.0039 14.0075 21.6956 12.3979 21.1175 11.1851L20.84 10.6129L20.655 10.9333C20.5548 11.1088 20.3236 11.4215 20.154 11.6275ZM17.6335 20.8957C16.8781 21.8798 16.7471 22.3146 16.909 23.3597L16.9629 23.6877L17.2866 23.0927C17.4562 22.757 17.6952 22.2002 17.8108 21.8416C17.9264 21.4831 18.1037 20.9568 18.2039 20.6669L18.3889 20.1482L18.2116 20.255C18.1191 20.316 17.857 20.6059 17.6335 20.8957ZM14.7662 20.5906C14.8509 20.7813 15.0051 21.2238 15.1053 21.5747C15.2055 21.9256 15.4753 22.5663 15.7065 22.9935L16.115 23.7868L16.1767 23.2376C16.2846 22.3527 15.9994 21.6662 15.1284 20.6669C14.9203 20.4304 14.7276 20.2397 14.6891 20.2397C14.6505 20.2397 14.6891 20.3999 14.7662 20.5906Z" fill="white"/>
</svg>
